<svg xmlns="http://www.w3.org/2000/svg" width="24" height="24" viewBox="0 0 24 24"><g fill="#000" fill-rule="evenodd" transform="translate(-12 -12)"><path fill="#000" fill-rule="evenodd" d="M32.623 29.653c-.323.747-.706 1.434-1.15 2.066-.603.861-1.098 1.458-1.48 1.789-.59.543-1.223.821-1.901.837-.487 0-1.074-.138-1.757-.42-.686-.279-1.316-.417-1.892-.417-.604 0-1.252.138-1.945.418-.694.28-1.253.427-1.68.442-.65.027-1.299-.259-1.946-.86-.413-.36-.929-.978-1.548-1.852-.663-.934-1.21-2.017-1.637-3.252C15.23 27.071 15 25.78 15 24.53c0-1.432.31-2.667.93-3.702.486-.832 1.134-1.488 1.946-1.969.81-.481 1.687-.727 2.63-.743.517 0 1.194.16 2.036.474.84.315 1.378.475 1.614.475.177 0 .776-.187 1.79-.56.96-.345 1.77-.488 2.433-.431 1.798.145 3.149.854 4.047 2.13-1.608.975-2.403 2.34-2.387 4.09.014 1.363.509 2.498 1.481 3.399.44.418.933.741 1.48.97-.119.345-.244.675-.377.991zm-4.124-16.225c0 1.068-.39 2.066-1.168 2.99-.94 1.098-2.076 1.732-3.307 1.632-.016-.128-.025-.263-.025-.405 0-1.026.446-2.124 1.24-3.022.396-.454.9-.832 1.51-1.134.61-.297 1.186-.46 1.728-.489.016.143.022.286.022.428z"/></g></svg>